<svg width="32" height="26" viewBox="0 0 32 26" fill="none" xmlns="http://www.w3.org/2000/svg">
<path d="M30.2498 0.000115254H26.2498V3.00012C26.2498 3.28902 26.1929 3.5751 26.0823 3.84202C25.9717 4.10894 25.8097 4.35146 25.6054 4.55575C25.4011 4.76004 25.1586 4.92209 24.8917 5.03265C24.6248 5.14321 24.3387 5.20012 24.0498 5.20012C23.7609 5.20012 23.4748 5.14321 23.2079 5.03265C22.9409 4.92209 22.6984 4.76004 22.4941 4.55575C22.2898 4.35146 22.1278 4.10894 22.0172 3.84202C21.9067 3.5751 21.8498 3.28902 21.8498 3.00012V0.000115254H10.1998V3.00012C10.1998 3.58359 9.96798 4.14317 9.5554 4.55575C9.14282 4.96833 8.58325 5.20012 7.99977 5.20012C7.41629 5.20012 6.85671 4.96833 6.44413 4.55575C6.03155 4.14317 5.79977 3.58359 5.79977 3.00012V0.000115254H1.79977C1.56179 -0.00259288 1.32569 0.042449 1.10542 0.132577C0.885157 0.222706 0.685201 0.35609 0.517382 0.524841C0.349563 0.693592 0.217289 0.894284 0.128382 1.11505C0.0394756 1.33581 -0.00425774 1.57216 -0.00023123 1.81012V24.1901C-0.00420424 24.4239 0.0379129 24.6561 0.123714 24.8736C0.209516 25.0911 0.337321 25.2895 0.49983 25.4576C0.662339 25.6257 0.856368 25.7601 1.07084 25.8532C1.2853 25.9463 1.51601 25.9962 1.74977 26.0001H30.2498C30.4835 25.9962 30.7142 25.9463 30.9287 25.8532C31.1432 25.7601 31.3372 25.6257 31.4997 25.4576C31.6622 25.2895 31.79 25.0911 31.8758 24.8736C31.9616 24.6561 32.0037 24.4239 31.9998 24.1901V1.81012C32.0037 1.57635 31.9616 1.3441 31.8758 1.12662C31.79 0.909135 31.6622 0.710687 31.4997 0.542606C31.3372 0.374525 31.1432 0.240105 30.9287 0.147023C30.7142 0.0539414 30.4835 0.00402187 30.2498 0.000115254ZM7.99977 20.0001H5.99977V18.0001H7.99977V20.0001ZM7.99977 15.0001H5.99977V13.0001H7.99977V15.0001ZM7.99977 10.0001H5.99977V8.00012H7.99977V10.0001ZM13.9998 20.0001H11.9998V18.0001H13.9998V20.0001ZM13.9998 15.0001H11.9998V13.0001H13.9998V15.0001ZM13.9998 10.0001H11.9998V8.00012H13.9998V10.0001ZM19.9998 20.0001H17.9998V18.0001H19.9998V20.0001ZM19.9998 15.0001H17.9998V13.0001H19.9998V15.0001ZM19.9998 10.0001H17.9998V8.00012H19.9998V10.0001ZM25.9998 20.0001H23.9998V18.0001H25.9998V20.0001ZM25.9998 15.0001H23.9998V13.0001H25.9998V15.0001ZM25.9998 10.0001H23.9998V8.00012H25.9998V10.0001Z" fill="#7E9351"/>
</svg>
