<svg width="30" height="30" viewBox="0 0 30 30" fill="none" xmlns="http://www.w3.org/2000/svg">
<path d="M22.8407 11.6888C22.8407 9.86755 22.0864 8.1209 20.7436 6.83308C19.4009 5.54526 17.5798 4.82178 15.681 4.82178C13.7821 4.82178 11.961 5.54526 10.6183 6.83308C9.27558 8.1209 8.52126 9.86755 8.52126 11.6888C8.52126 19.7003 4.94141 21.9893 4.94141 21.9893H26.4205C26.4205 21.9893 22.8407 19.7003 22.8407 11.6888Z" stroke="white" stroke-width="2.16974" stroke-linecap="round" stroke-linejoin="round"/>
<path d="M17.746 26.5669C17.5362 26.9138 17.235 27.2017 16.8727 27.4018C16.5104 27.602 16.0997 27.7073 15.6816 27.7073C15.2635 27.7073 14.8527 27.602 14.4904 27.4018C14.1281 27.2017 13.827 26.9138 13.6172 26.5669" stroke="white" stroke-width="2.16974" stroke-linecap="round" stroke-linejoin="round"/>
<ellipse cx="6.59961" cy="6.32982" rx="6.59961" ry="6.32982" fill="white"/>
</svg>
