<svg width="26" height="28" viewBox="0 0 26 28" fill="none" xmlns="http://www.w3.org/2000/svg">
<g filter="url(#filter0_d_266_335)">
<path d="M12.2395 11.8383C12.5847 11.4071 12.5151 10.7778 12.084 10.4326C11.6529 10.0874 11.0235 10.1571 10.6783 10.5882L12.2395 11.8383ZM9.03438 12.6412C8.68918 13.0723 8.75882 13.7016 9.18993 14.0468C9.62103 14.392 10.2504 14.3224 10.5956 13.8913L9.03438 12.6412ZM8.6726 11.1819C8.22803 10.8542 7.60199 10.949 7.27431 11.3935C6.94662 11.8381 7.04136 12.4641 7.48593 12.7918L8.6726 11.1819ZM11.0899 15.4483C11.5344 15.776 12.1605 15.6812 12.4881 15.2366C12.8158 14.7921 12.7211 14.166 12.2765 13.8384L11.0899 15.4483ZM7.54651 18.4675L8.3271 19.0925L7.54651 18.4675ZM5.29406 16.8072L4.51347 16.1821H4.51347L5.29406 16.8072ZM5.55505 18.7179L4.96172 19.5228H4.96172L5.55505 18.7179ZM19.0017 9.45584C17.3642 11.5008 14.28 11.8987 12.1286 10.3129L10.9419 11.9228C13.9421 14.1343 18.2426 13.6036 20.5628 10.7059L19.0017 9.45584ZM12.1286 10.3129C10.0014 8.74493 9.61781 5.85007 11.235 3.8304L9.67385 2.58031C7.3333 5.50331 7.91755 9.69355 10.9419 11.9228L12.1286 10.3129ZM11.235 3.8304C12.8725 1.7854 15.9567 1.38753 18.1081 2.97333L19.2948 1.36342C16.2946 -0.848036 11.9941 -0.317365 9.67385 2.58031L11.235 3.8304ZM18.1081 2.97333C20.2353 4.54131 20.6189 7.43617 19.0017 9.45584L20.5628 10.7059C22.9034 7.78293 22.3191 3.59268 19.2948 1.36342L18.1081 2.97333ZM10.6783 10.5882L9.03438 12.6412L10.5956 13.8913L12.2395 11.8383L10.6783 10.5882ZM7.48593 12.7918L11.0899 15.4483L12.2765 13.8384L8.6726 11.1819L7.48593 12.7918ZM10.2269 13.5202L6.76593 17.8424L8.3271 19.0925L11.788 14.7703L10.2269 13.5202ZM6.07465 17.4322L9.53558 13.11L7.97441 11.8599L4.51347 16.1821L6.07465 17.4322ZM6.14839 17.9129C5.97496 17.7851 5.95846 17.5773 6.07465 17.4322L4.51347 16.1821C3.67395 17.2306 3.89115 18.7337 4.96172 19.5228L6.14839 17.9129ZM6.76593 17.8424C6.62946 18.0128 6.34599 18.0586 6.14839 17.9129L4.96172 19.5228C6.00812 20.2941 7.50786 20.1156 8.3271 19.0925L6.76593 17.8424Z" fill="white"/>
</g>
<defs>
<filter id="filter0_d_266_335" x="-0.000488281" y="0" width="26.001" height="28" filterUnits="userSpaceOnUse" color-interpolation-filters="sRGB">
<feFlood flood-opacity="0" result="BackgroundImageFix"/>
<feColorMatrix in="SourceAlpha" type="matrix" values="0 0 0 0 0 0 0 0 0 0 0 0 0 0 0 0 0 0 127 0" result="hardAlpha"/>
<feOffset dy="4"/>
<feGaussianBlur stdDeviation="2"/>
<feComposite in2="hardAlpha" operator="out"/>
<feColorMatrix type="matrix" values="0 0 0 0 0 0 0 0 0 0 0 0 0 0 0 0 0 0 0.5 0"/>
<feBlend mode="normal" in2="BackgroundImageFix" result="effect1_dropShadow_266_335"/>
<feBlend mode="normal" in="SourceGraphic" in2="effect1_dropShadow_266_335" result="shape"/>
</filter>
</defs>
</svg>
