<svg width="54" height="38" viewBox="0 0 54 38" fill="none" xmlns="http://www.w3.org/2000/svg">
<path fill-rule="evenodd" clip-rule="evenodd" d="M13.3903 0.512199C22.3962 -0.170733 31.4529 -0.170733 40.4587 0.512199L44.7771 0.841834C46.7844 0.995328 48.6743 1.73388 50.1428 2.93871C51.6112 4.14354 52.573 5.74463 52.8733 7.48448C54.1704 15.0171 54.1704 22.6767 52.8733 30.2093C52.573 31.9492 51.6112 33.5503 50.1428 34.7551C48.6743 35.9599 46.7844 36.6985 44.7771 36.852L40.4587 37.1791C31.4502 37.8634 22.3959 37.8634 13.3903 37.1791L9.07191 36.852C7.06409 36.699 5.17356 35.9607 3.70451 34.7558C2.23546 33.551 1.27329 31.9496 0.972825 30.2093C-0.324275 22.6767 -0.324275 15.0171 0.972825 7.48448C1.27317 5.74463 2.23492 4.14354 3.70339 2.93871C5.17187 1.73388 7.06174 0.995328 9.06905 0.841834L13.3903 0.512199ZM40.087 4.24557C31.3276 3.57877 22.5185 3.57877 13.7592 4.24557L9.44083 4.57271C8.39379 4.65358 7.40821 5.03923 6.64222 5.66779C5.87624 6.29635 5.37427 7.13137 5.21684 8.03887C4.47997 12.3107 4.18231 16.6315 4.32743 20.9496L15.3979 11.2803C15.6045 11.1002 15.8511 10.9588 16.1225 10.8648C16.3939 10.7708 16.6844 10.7261 16.9762 10.7336C17.2681 10.7411 17.5551 10.8005 17.8197 10.9083C18.0843 11.016 18.321 11.1698 18.5151 11.3602L29.0165 21.6738L36.2519 19.5661C36.6486 19.4502 37.0754 19.438 37.4799 19.5312C37.8843 19.6244 38.2488 19.8188 38.5283 20.0905L48.5921 29.8547L48.6322 29.6549C49.8663 22.4899 49.8663 15.2039 48.6322 8.03887C48.4746 7.13098 47.9722 6.29567 47.2057 5.66707C46.4391 5.03846 45.4529 4.65305 44.4053 4.57271L40.087 4.24557ZM45.8553 32.8015L36.2776 23.5093L29.0308 25.6169C28.6325 25.733 28.204 25.7445 27.7983 25.65C27.3926 25.5554 27.0276 25.359 26.7486 25.085L16.8221 15.3333L4.68491 25.9291C4.82409 27.1744 5.00044 28.4155 5.21398 29.6525C5.37094 30.5608 5.87308 31.3967 6.63969 32.0258C7.4063 32.6549 8.39286 33.0407 9.44083 33.1211L13.7592 33.4483C22.5189 34.1125 31.3272 34.1125 40.087 33.4483L44.4053 33.1211C44.9144 33.0812 45.4063 32.9713 45.8553 32.8015Z" fill="black"/>
</svg>
