<svg width="43" height="40" viewBox="0 0 43 40" fill="none" xmlns="http://www.w3.org/2000/svg">
<g style="mix-blend-mode:hard-light">
<path d="M21.4615 39.8769V18.4276M21.4615 19.7682V27.8117M21.4615 19.7682C21.4615 16.9238 20.2297 14.1959 18.0369 12.1847C15.8442 10.1734 12.8702 9.0435 9.76923 9.0435H1V17.087C1 19.9314 2.23187 22.6592 4.4246 24.6705C6.61733 26.6818 9.59132 27.8117 12.6923 27.8117H21.4615M21.4615 19.7682H30.2308C33.3318 19.7682 36.3057 18.6383 38.4985 16.627C40.6912 14.6157 41.9231 11.8879 41.9231 9.0435V1H33.1538C30.0529 1 27.0789 2.12992 24.8861 4.14118C22.6934 6.15245 21.4615 8.88031 21.4615 11.7247V19.7682ZM21.4615 19.7682L33.1538 9.0435M21.4615 27.8117L9.76923 17.087" stroke="black"/>
</g>
</svg>
