<svg width="36" height="37" viewBox="0 0 36 37" fill="none" xmlns="http://www.w3.org/2000/svg">
<path d="M19.8 37H16.2V31.45H19.8V37ZM29.4552 32.8893L25.6374 28.9655L28.1826 26.3496L32.0022 30.2752L29.4588 32.8893H29.4552ZM6.5448 32.8893L3.9978 30.2734L7.8138 26.3477L10.3608 28.9636L6.5448 32.8875V32.8893ZM18 27.763C13.0229 27.7609 8.98967 23.6128 8.991 18.4975C8.99232 13.3822 13.0277 9.23637 18.0048 9.23705C22.9819 9.23773 27.0162 13.3847 27.0162 18.5C27.0112 23.6151 22.9769 27.7599 18 27.763ZM18 12.937C15.0112 12.9391 12.5897 15.4306 12.591 18.5025C12.5923 21.5743 15.016 24.0636 18.0048 24.0629C20.9936 24.0623 23.4162 21.5719 23.4162 18.5C23.4132 15.4275 20.9895 12.9381 18 12.937ZM36 20.35H30.6V16.65H36V20.35ZM5.4 20.35H0V16.65H5.4V20.35ZM28.1808 10.6523L25.6374 8.03455L29.4552 4.10885L32.0022 6.7266L28.1826 10.6504L28.1808 10.6523ZM7.8174 10.6523L4.0014 6.72845L6.5484 4.11255L10.3644 8.03825L7.8192 10.6504L7.8174 10.6523ZM19.8 5.55H16.2V0H19.8V5.55Z" fill="#405268"/>
</svg>
