<svg width="32" height="32" viewBox="0 0 32 32" fill="none" xmlns="http://www.w3.org/2000/svg">
<path d="M17.5802 31.8332H14.4136V27.0832H17.5802V31.8332ZM26.0732 28.315L22.715 24.9568L24.9538 22.7179L28.3137 26.0778L26.0764 28.315H26.0732ZM5.92057 28.315L3.68016 26.0762L7.03682 22.7163L9.27724 24.9552L5.92057 28.3134V28.315ZM15.9969 23.9276C11.6189 23.9258 8.07116 20.3757 8.07232 15.9977C8.07349 11.6198 11.6232 8.0715 16.0011 8.07209C20.3791 8.07267 23.9278 11.6219 23.9278 15.9998C23.9235 20.3776 20.3747 23.925 15.9969 23.9276ZM15.9969 11.2388C13.3678 11.2405 11.2378 13.3729 11.239 16.0019C11.2402 18.631 13.3721 20.7615 16.0011 20.7609C18.6302 20.7603 20.7612 18.6289 20.7612 15.9998C20.7585 13.3702 18.6265 11.2396 15.9969 11.2388ZM31.8302 17.5832H27.0802V14.4165H31.8302V17.5832ZM4.91357 17.5832H0.163574V14.4165H4.91357V17.5832ZM24.9522 9.28334L22.715 7.04292L26.0732 3.68309L28.3137 5.9235L24.9538 9.28175L24.9522 9.28334ZM7.03999 9.28334L3.68332 5.92509L5.92374 3.68625L9.28041 7.04609L7.04157 9.28175L7.03999 9.28334ZM17.5802 4.9165H14.4136V0.166504H17.5802V4.9165Z" fill="#FFD771"/>
</svg>
