<svg xmlns="http://www.w3.org/2000/svg" xmlns:xlink="http://www.w3.org/1999/xlink" viewBox="0 0 40 40"><path fill="#bae0bd" d="M10.233,23.571c-5.683,0-8.202-7.604-8.667-9.2C2.458,13.628,5.937,11,10.562,11 c3.017,0,6.224,1.528,6.224,4.359c0,2.526-2.645,3.332-2.758,3.364l-0.377,0.111l0.017,0.394c0.001,0.021,0.087,2.197-1.109,3.45 C11.994,23.271,11.211,23.571,10.233,23.571z"/><path fill="#5e9c76" d="M10.562,11.5c2.775,0,5.724,1.353,5.724,3.859c0,2.143-2.302,2.856-2.395,2.884l-0.756,0.221 l0.034,0.786c0.001,0.02,0.073,1.993-0.974,3.086c-0.473,0.494-1.115,0.734-1.961,0.734c-5.021,0-7.457-6.504-8.091-8.523 C3.284,13.655,6.46,11.5,10.562,11.5 M10.562,10.5C4.925,10.5,1,14.201,1,14.201s2.453,9.87,9.234,9.87 c4.175,0,3.934-4.867,3.934-4.867s3.118-0.897,3.118-3.845C17.286,12.312,14.047,10.5,10.562,10.5L10.562,10.5z"/><path fill="none" stroke="#5e9c76" d="M19.321,30.857c0-5.38-1.699-12.317-10.374-14.325"/><path fill="#bae0bd" d="M31.537,23.571c-2.948,0-3.1-3.59-3.104-3.743l-0.013-0.382l-0.374-0.09 c-0.086-0.021-2.117-0.526-2.117-2.545c0-2.306,2.629-3.55,5.103-3.55c3.77,0,6.621,2.112,7.408,2.762 C38.062,17.432,36.146,23.571,31.537,23.571z"/><path fill="#5e9c76" d="M31.032,13.762c3.282,0,5.846,1.684,6.837,2.446c-0.513,1.749-2.354,6.864-6.332,6.864 c-2.416,0-2.593-2.927-2.605-3.257l-0.03-0.761l-0.737-0.182c-0.178-0.044-1.735-0.474-1.735-2.06 C26.429,14.831,28.8,13.762,31.032,13.762 M31.032,12.762c-2.905,0-5.603,1.51-5.603,4.049c0,2.457,2.504,3.033,2.504,3.033 s0.125,4.227,3.604,4.227c5.651,0,7.464-8.225,7.464-8.225S35.729,12.762,31.032,12.762L31.032,12.762z"/><path fill="none" stroke="#5e9c76" d="M19.321,33.571c0-9.56,9.741-14.776,14.889-16.433"/><path fill="#bae0bd" d="M25.525,11.494c-0.543,0-0.995-0.194-1.381-0.594c-0.753-0.779-0.972-2.036-0.957-2.489l0.018-0.518 h-0.518c-0.71,0-2.155-1.232-2.155-2.663c0-0.956,0.683-1.793,1.976-2.418c1.72-0.833,4.407-1.273,7.991-1.31 c0.009,2.357-0.085,8.576-4.104,9.845C26.087,11.445,25.794,11.494,25.525,11.494z"/><path fill="#5e9c76" d="M29.999,2.01c-0.019,2.538-0.328,7.779-3.753,8.86c-0.26,0.082-0.503,0.124-0.72,0.124 c-0.406,0-0.73-0.14-1.021-0.441c-0.6-0.62-0.831-1.708-0.817-2.126l0.035-1.034h-1.035c-0.464,0-1.655-1.028-1.655-2.163 c0-0.762,0.57-1.424,1.693-1.968C24.3,2.501,26.743,2.08,29.999,2.01 M30.997,1c-15.684,0-10.632,7.393-8.309,7.393 c-0.031,0.919,0.63,3.601,2.837,3.601c0.309,0,0.649-0.053,1.021-0.17C31.255,10.338,30.997,2.891,30.997,1L30.997,1z"/><path fill="none" stroke="#5e9c76" d="M19.5,28c0-15.859,2.449-20.504,8.045-23.83"/><g><path fill="#a6714e" d="M4,38.5c-1.378,0-2.5-1.121-2.5-2.5s1.122-2.5,2.5-2.5c0.15,0,0.296,0.02,0.439,0.045l0.349,0.062 l0.174-0.309C5.585,32.188,6.75,31.5,8,31.5c0.066,0,0.13,0.01,0.195,0.019l0.158,0.02l0.364,0.034l0.144-0.336 C9.569,29.574,11.194,28.5,13,28.5c0.861,0,1.704,0.252,2.439,0.729l0.343,0.223l0.286-0.293C17.113,28.089,18.51,27.5,20,27.5 s2.887,0.589,3.932,1.658l0.286,0.293l0.343-0.223C25.296,28.752,26.139,28.5,27,28.5c1.806,0,3.431,1.074,4.14,2.736l0.144,0.336 l0.364-0.034l0.158-0.02C31.87,31.51,31.934,31.5,32,31.5c1.25,0,2.415,0.688,3.038,1.798l0.174,0.309l0.349-0.062 C35.704,33.52,35.85,33.5,36,33.5c1.378,0,2.5,1.121,2.5,2.5s-1.122,2.5-2.5,2.5H4z"/><path fill="#7a4f34" d="M20,28c1.354,0,2.624,0.535,3.574,1.507l0.572,0.585l0.687-0.445C25.486,29.224,26.236,29,27,29 c1.605,0,3.049,0.955,3.68,2.433l0.289,0.676l0.732-0.074c0.056-0.006,0.111-0.013,0.166-0.02C31.911,32.009,31.954,32,32,32 c1.07,0,2.067,0.591,2.602,1.543l0.348,0.619l0.699-0.124C35.795,34.012,35.904,34,36,34c1.103,0,2,0.897,2,2s-0.897,2-2,2H4 c-1.103,0-2-0.897-2-2s0.897-2,2-2c0.096,0,0.205,0.012,0.351,0.038l0.699,0.124l0.348-0.619C5.933,32.591,6.93,32,8,32 c0.046,0,0.089,0.009,0.133,0.015c0.055,0.008,0.111,0.015,0.166,0.02l0.732,0.074l0.289-0.676C9.951,29.955,11.395,29,13,29 c0.764,0,1.514,0.224,2.167,0.647l0.687,0.445l0.572-0.585C17.376,28.535,18.646,28,20,28 M20,27 c-1.682,0-3.199,0.694-4.289,1.808C14.929,28.301,14.001,28,13,28c-2.066,0-3.837,1.253-4.6,3.04C8.267,31.027,8.137,31,8,31 c-1.498,0-2.789,0.834-3.474,2.053C4.355,33.023,4.18,33,4,33c-1.657,0-3,1.343-3,3s1.343,3,3,3h32c1.657,0,3-1.343,3-3 s-1.343-3-3-3c-0.18,0-0.355,0.023-0.526,0.053C34.789,31.834,33.498,31,32,31c-0.137,0-0.267,0.027-0.4,0.04 C30.837,29.253,29.066,28,27,28c-1.001,0-1.929,0.301-2.711,0.808C23.199,27.694,21.682,27,20,27L20,27z"/></g></svg>